<?xml version="1.0" encoding="utf-8"?>
<!-- Generator: Adobe Illustrator 26.0.0, SVG Export Plug-In . SVG Version: 6.00 Build 0)  -->
<svg version="1.1" id="Layer_1" xmlns="http://www.w3.org/2000/svg" xmlns:xlink="http://www.w3.org/1999/xlink" x="0px" y="0px"
	 viewBox="0 0 1000 1000" style="enable-background:new 0 0 1000 1000;" xml:space="preserve">
<style type="text/css">
	.st0{fill:#FFFFFF;}
	.st1{fill:url(#路径_00000093151634393251995640000009379436288812972928_);}
	.st2{fill:url(#路径_00000181807316239141092200000003599704596366165174_);}
	.st3{fill:url(#路径_00000066501539356391429660000004093677238552219310_);}
	.st4{fill:url(#形状_00000131344266554442248150000016977161434629992618_);}
	.st5{fill:url(#形状_00000051384762346714082150000012773603063059836841_);}
	.st6{fill:url(#形状_00000029011237071187272500000005371470469536940185_);}
	.st7{fill-rule:evenodd;clip-rule:evenodd;}
</style>
<g>
	<g id="通义法睿logo_00000062873522637356860670000004236275241195608251_" transform="translate(2, 2)">
		<g id="编组_00000059292297503122986130000012981252646097043102_" transform="translate(2, 1)">
			<polygon id="路径_00000169523983134138038260000012693425703445569688_" class="st0" points="188.1,390.4 204.8,418.9 
				188.1,447.2 321.4,447.2 304.7,471.3 174.8,471.3 156.5,444.7 			"/>
			<polygon id="路径_00000028292663779449605350000010827990842055538601_" class="st0" points="123.2,447.2 154.5,447.2 
				220.1,559.8 201.6,591.6 138.2,591.6 154.8,555.5 186.4,555.5 			"/>
			<polygon id="路径_00000070099265625814547910000015844384453726213052_" class="st0" points="204.8,590.4 221.4,619 
				288.1,504.7 304.7,531.4 338.1,531.4 306.4,471.3 269.8,471.3 			"/>
		</g>
		<g id="编组_00000019666295283373839220000010825971624781403560_" transform="translate(2, 1)">
			
				<linearGradient id="路径_00000022559388826523030870000005845850084340437643_" gradientUnits="userSpaceOnUse" x1="-5.5124" y1="1085.9698" x2="3.0151" y2="1095.1705" gradientTransform="matrix(13.7081 0 0 -7.1237 251.7404 8206.3564)">
				<stop  offset="0" style="stop-color:#615CED;stop-opacity:0.5"/>
				<stop  offset="0" style="stop-color:#6964ED;stop-opacity:0.53"/>
				<stop  offset="1.000000e-02" style="stop-color:#8884F1;stop-opacity:0.62"/>
				<stop  offset="3.000000e-02" style="stop-color:#A4A2F4;stop-opacity:0.72"/>
				<stop  offset="4.000000e-02" style="stop-color:#BDBBF7;stop-opacity:0.79"/>
				<stop  offset="6.000000e-02" style="stop-color:#D2D0F9;stop-opacity:0.86"/>
				<stop  offset="7.000000e-02" style="stop-color:#E2E1FB;stop-opacity:0.91"/>
				<stop  offset="9.000000e-02" style="stop-color:#EFEFFD;stop-opacity:0.95"/>
				<stop  offset="0.12" style="stop-color:#F8F8FE;stop-opacity:0.98"/>
				<stop  offset="0.15" style="stop-color:#FDFDFE"/>
				<stop  offset="0.25" style="stop-color:#FFFFFF"/>
			</linearGradient>
			
				<polygon id="路径_00000147915398988286224150000013703939952839049903_" style="fill:url(#路径_00000022559388826523030870000005845850084340437643_);" points="
				188.1,390.4 204.8,418.9 188.1,447.2 321.4,447.2 304.7,471.3 174.8,471.3 156.5,444.7 			"/>
			
				<linearGradient id="路径_00000178921168075725215090000010045921845818319526_" gradientUnits="userSpaceOnUse" x1="-0.7805" y1="1043.1278" x2="-15.9313" y2="1048.9734" gradientTransform="matrix(8.1694 0 0 -11.8763 226.6775 12949.3926)">
				<stop  offset="0" style="stop-color:#615CED;stop-opacity:0.5"/>
				<stop  offset="0" style="stop-color:#6964ED;stop-opacity:0.53"/>
				<stop  offset="1.000000e-02" style="stop-color:#8884F1;stop-opacity:0.62"/>
				<stop  offset="3.000000e-02" style="stop-color:#A4A2F4;stop-opacity:0.72"/>
				<stop  offset="4.000000e-02" style="stop-color:#BDBBF7;stop-opacity:0.79"/>
				<stop  offset="6.000000e-02" style="stop-color:#D2D0F9;stop-opacity:0.86"/>
				<stop  offset="7.000000e-02" style="stop-color:#E2E1FB;stop-opacity:0.91"/>
				<stop  offset="9.000000e-02" style="stop-color:#EFEFFD;stop-opacity:0.95"/>
				<stop  offset="0.12" style="stop-color:#F8F8FE;stop-opacity:0.98"/>
				<stop  offset="0.15" style="stop-color:#FDFDFE"/>
				<stop  offset="0.25" style="stop-color:#FFFFFF"/>
			</linearGradient>
			
				<polygon id="路径_00000139985045638711752690000007227136393069410184_" style="fill:url(#路径_00000178921168075725215090000010045921845818319526_);" points="
				138.1,591.6 154.8,555.5 186.4,555.5 123.2,447.2 154.4,447.2 220.1,559.8 201.6,591.6 			"/>
			
				<linearGradient id="路径_00000116934580728722831120000011792517963736115117_" gradientUnits="userSpaceOnUse" x1="2.365" y1="1051.9966" x2="2.3639" y2="1039.303" gradientTransform="matrix(11.0774 0 0 -11.6388 245.2323 12715.2598)">
				<stop  offset="0" style="stop-color:#615CED;stop-opacity:0.5"/>
				<stop  offset="0" style="stop-color:#6964ED;stop-opacity:0.53"/>
				<stop  offset="1.000000e-02" style="stop-color:#8884F1;stop-opacity:0.62"/>
				<stop  offset="3.000000e-02" style="stop-color:#A4A2F4;stop-opacity:0.72"/>
				<stop  offset="4.000000e-02" style="stop-color:#BDBBF7;stop-opacity:0.79"/>
				<stop  offset="6.000000e-02" style="stop-color:#D2D0F9;stop-opacity:0.86"/>
				<stop  offset="7.000000e-02" style="stop-color:#E2E1FB;stop-opacity:0.91"/>
				<stop  offset="9.000000e-02" style="stop-color:#EFEFFD;stop-opacity:0.95"/>
				<stop  offset="0.12" style="stop-color:#F8F8FE;stop-opacity:0.98"/>
				<stop  offset="0.15" style="stop-color:#FDFDFE"/>
				<stop  offset="0.25" style="stop-color:#FFFFFF"/>
			</linearGradient>
			
				<polygon id="路径_00000016051347413104335230000011739271525438745479_" style="fill:url(#路径_00000116934580728722831120000011792517963736115117_);" points="
				338.1,531.4 304.7,531.4 288.1,504.7 221.4,619 204.8,590.4 269.8,471.3 306.4,471.3 			"/>
		</g>
		
			<linearGradient id="形状_00000048471065138763817590000007720703457186587061_" gradientUnits="userSpaceOnUse" x1="4.5392" y1="1031.5057" x2="-5.9654" y2="1025.2606" gradientTransform="matrix(20 0 0 -20 234 21064)">
			<stop  offset="0" style="stop-color:#615CED"/>
			<stop  offset="0.17" style="stop-color:#6156EC"/>
			<stop  offset="0.38" style="stop-color:#6147E9"/>
			<stop  offset="0.61" style="stop-color:#622FE4"/>
			<stop  offset="0.62" style="stop-color:#632DE4"/>
		</linearGradient>
		
			<path id="形状_00000015330086763774551180000000156664298259914401_" style="fill:url(#形状_00000048471065138763817590000007720703457186587061_);" d="
			M339.5,518.8l-28.2-49.2l-3.3-5.8l14.9-26.1c0.5-0.9,0.8-1.9,0.8-2.9c0-1-0.2-2-0.8-2.9l-16.6-29c-0.5-0.9-1.2-1.6-2.1-2.1
			c-0.9-0.5-1.8-0.8-2.9-0.8h-62l-14.8-17.9c-1-1.8-4.9-6.2-4.9-6.2h-31.8c-1.1,0-2.1,0.3-3,0.8s-1.7,1.3-2.2,2.2l-29.2,51.1l-3.4,6
			h-28.6c-1,0-2,0.3-2.9,0.8c-0.9,0.5-1.6,1.2-2.1,2.1L100,468c-0.5,0.9-0.8,1.9-0.8,2.9c0,1,0.2,2,0.8,2.9l31.5,55l-14.9,26.1
			c-0.5,0.9-0.8,1.9-0.8,2.9c0,1,0.2,2,0.8,2.9l16.6,29c0.5,0.9,1.2,1.6,2.1,2.1c0.9,0.5,1.8,0.8,2.9,0.8h62l14.8,24.5
			c1,1.8,4.9-0.5,4.9-0.5h31.8c1.1,0,2.1-0.3,3-0.8c0.9-0.5,1.7-1.3,2.2-2.2l32.7-57.2H318c1,0,2-0.3,2.9-0.8
			c0.9-0.5,1.6-1.2,2.1-2.1l16.6-29c0.5-0.9,0.8-1.9,0.8-2.9C340.3,520.7,340,519.8,339.5,518.8z M186.9,385.1l16.4,28.7l-16.4,34.5
			H318l-16.4,24.1H173.9l-18-32.8L186.9,385.1z M200.1,580.6h-62.4l16.4-24.1h34.4l-68.8-120.3h34.1l16.5,28.9l47.9,83.7
			L200.1,580.6L200.1,580.6z M301.6,532.4l-16.4-32.8l-65.5,114.6l-16.4-28.7l16.4-28.7l47.5-84.7h36l31.1,60.2H301.6L301.6,532.4z"
			/>
		
			<linearGradient id="形状_00000041974796539229367150000007713305256686607267_" gradientUnits="userSpaceOnUse" x1="-6.7406" y1="1028.3547" x2="5.3144" y2="1028.3547" gradientTransform="matrix(20 0 0 -20 234 21064)">
			<stop  offset="0" style="stop-color:#615CED"/>
			<stop  offset="4.000000e-02" style="stop-color:#615CED;stop-opacity:0.96"/>
			<stop  offset="9.000000e-02" style="stop-color:#615CED;stop-opacity:0.86"/>
			<stop  offset="0.17" style="stop-color:#615CED;stop-opacity:0.69"/>
			<stop  offset="0.25" style="stop-color:#615CED;stop-opacity:0.46"/>
			<stop  offset="0.35" style="stop-color:#615CED;stop-opacity:0.16"/>
			<stop  offset="0.4" style="stop-color:#615CED;stop-opacity:0"/>
		</linearGradient>
		
			<path id="形状_00000153701526855006986570000002111802051037381022_" style="fill:url(#形状_00000041974796539229367150000007713305256686607267_);" d="
			M339.5,518.8l-28.2-49.2l-3.3-5.8l14.9-26.1c0.5-0.9,0.8-1.9,0.8-2.9c0-1-0.2-2-0.8-2.9l-16.6-29c-0.5-0.9-1.2-1.6-2.1-2.1
			c-0.9-0.5-1.8-0.8-2.9-0.8h-62l-14.8-17.9c-1-1.8-4.9-6.2-4.9-6.2h-31.8c-1.1,0-2.1,0.3-3,0.8s-1.7,1.3-2.2,2.2l-29.2,51.1l-3.4,6
			h-28.6c-1,0-2,0.3-2.9,0.8c-0.9,0.5-1.6,1.2-2.1,2.1L100,468c-0.5,0.9-0.8,1.9-0.8,2.9c0,1,0.2,2,0.8,2.9l31.5,55l-14.9,26.1
			c-0.5,0.9-0.8,1.9-0.8,2.9c0,1,0.2,2,0.8,2.9l16.6,29c0.5,0.9,1.2,1.6,2.1,2.1c0.9,0.5,1.8,0.8,2.9,0.8h62l14.8,24.5
			c1,1.8,4.9-0.5,4.9-0.5h31.8c1.1,0,2.1-0.3,3-0.8c0.9-0.5,1.7-1.3,2.2-2.2l32.7-57.2H318c1,0,2-0.3,2.9-0.8
			c0.9-0.5,1.6-1.2,2.1-2.1l16.6-29c0.5-0.9,0.8-1.9,0.8-2.9C340.3,520.7,340,519.8,339.5,518.8z M186.9,385.1l16.4,28.7l-16.4,34.5
			H318l-16.4,24.1H173.9l-18-32.8L186.9,385.1z M200.1,580.6h-62.4l16.4-24.1h34.4l-68.8-120.3h34.1l16.5,28.9l47.9,83.7
			L200.1,580.6L200.1,580.6z M301.6,532.4l-16.4-32.8l-65.5,114.6l-16.4-28.7l16.4-28.7l47.5-84.7h36l31.1,60.2H301.6L301.6,532.4z"
			/>
		
			<linearGradient id="形状_00000161626356358503492990000000517123825734107283_" gradientUnits="userSpaceOnUse" x1="2.3918" y1="1033.9224" x2="-3.8194" y2="1022.8415" gradientTransform="matrix(20 0 0 -20 234 21064)">
			<stop  offset="0" style="stop-color:#A7A5F6"/>
			<stop  offset="5.000000e-02" style="stop-color:#9895F4;stop-opacity:0.79"/>
			<stop  offset="0.12" style="stop-color:#8784F1;stop-opacity:0.55"/>
			<stop  offset="0.19" style="stop-color:#7975F0;stop-opacity:0.35"/>
			<stop  offset="0.25" style="stop-color:#6F6AEE;stop-opacity:0.2"/>
			<stop  offset="0.31" style="stop-color:#6762ED;stop-opacity:9.000000e-02"/>
			<stop  offset="0.36" style="stop-color:#625DED;stop-opacity:2.000000e-02"/>
			<stop  offset="0.4" style="stop-color:#615CED;stop-opacity:0"/>
		</linearGradient>
		
			<path id="形状_00000107577251033893729710000008774002231294313656_" style="fill:url(#形状_00000161626356358503492990000000517123825734107283_);" d="
			M339.5,518.8l-28.2-49.2l-3.3-5.8l14.9-26.1c0.5-0.9,0.8-1.9,0.8-2.9c0-1-0.2-2-0.8-2.9l-16.6-29c-0.5-0.9-1.2-1.6-2.1-2.1
			c-0.9-0.5-1.8-0.8-2.9-0.8h-62l-14.8-17.9c-1-1.8-4.9-6.2-4.9-6.2h-31.8c-1.1,0-2.1,0.3-3,0.8s-1.7,1.3-2.2,2.2l-29.2,51.1l-3.4,6
			h-28.6c-1,0-2,0.3-2.9,0.8c-0.9,0.5-1.6,1.2-2.1,2.1L100,468c-0.5,0.9-0.8,1.9-0.8,2.9c0,1,0.2,2,0.8,2.9l31.5,55l-14.9,26.1
			c-0.5,0.9-0.8,1.9-0.8,2.9c0,1,0.2,2,0.8,2.9l16.6,29c0.5,0.9,1.2,1.6,2.1,2.1c0.9,0.5,1.8,0.8,2.9,0.8h62l14.8,24.5
			c1,1.8,4.9-0.5,4.9-0.5h31.8c1.1,0,2.1-0.3,3-0.8c0.9-0.5,1.7-1.3,2.2-2.2l32.7-57.2H318c1,0,2-0.3,2.9-0.8
			c0.9-0.5,1.6-1.2,2.1-2.1l16.6-29c0.5-0.9,0.8-1.9,0.8-2.9C340.3,520.7,340,519.8,339.5,518.8z M186.9,385.1l16.4,28.7l-16.4,34.5
			H318l-16.4,24.1H173.9l-18-32.8L186.9,385.1z M200.1,580.6h-62.4l16.4-24.1h34.4l-68.8-120.3h34.1l16.5,28.9l47.9,83.7
			L200.1,580.6L200.1,580.6z M301.6,532.4l-16.4-32.8l-65.5,114.6l-16.4-28.7l16.4-28.7l47.5-84.7h36l31.1,60.2H301.6L301.6,532.4z"
			/>
	</g>
	<path class="st7" d="M870.3,564.8l6.9-52.5c0.1-1,0.3-1.9,0.3-2.9c0-1.1,0-2.7,0-4.7c0-6-1.4-10.6-4.3-13.6
		c-2.9-3.2-7.1-4.8-12.6-4.8c-8.7,0-15.4,2.8-20.3,8.4c-4.8,5.5-8,14-9.6,25.5l-5.7,44.8h-20.8l12.1-91.4h20l-1.5,11
		c5.2-4.8,10.7-8.4,16.3-10.7c5.7-2.3,11.8-3.6,18-3.4c9.4,0,16.7,2.4,21.9,7.4c5.2,4.8,7.9,11.7,7.9,20.6s-0.1,4.8-0.4,7.9
		c-0.3,2.9-0.6,6.4-1.1,10.4l-6.4,48.2h-20.8l0,0L870.3,564.8z M766.4,536.6l14.9,11.7c-5.4,7-11.1,12.1-17.3,15.3
		c-6.2,3.2-13.4,4.8-21.5,4.8c-13.5,0-24.5-4.1-32.9-12.2c-8.4-8.3-12.5-19-12.5-32.4c0-13.4,4.8-28.5,14.4-38.6
		c9.7-10.1,21.9-15.2,36.7-15.2s22.3,3.8,29.6,11.6c7.4,7.6,11.1,18,11.1,30.8s0,2.5-0.3,4.2c0,1.7-0.3,3.7-0.4,6.1h-69.7
		c0,8.3,2,14.9,6.2,19.9c4.2,4.8,9.7,7.3,16.7,7.3s9.4-1.1,13.6-3.4c4.5-2.4,8.2-5.7,11.2-9.9l0,0L766.4,536.6z M720.4,508.1h47.1
		c-0.1-6.1-2.2-11.1-5.7-14.5c-3.6-3.6-8.4-5.4-14.5-5.4c-6.1,0-12.9,1.8-17.6,5.4c-4.8,3.6-7.9,8.4-9.2,14.5H720.4z M543.6,473.3
		h20.9l14.8,46.6l0.4,1.1c1.8,5.7,2.8,9.9,2.9,12.7c0.8-2.2,1.7-4.5,2.7-7c1.1-2.5,2.5-5.2,4.2-8l30.7-52.4l14.9,53.9
		c0.6,2,1,4.1,1.4,6.1c0.4,2.2,0.8,4.6,1,7.3c1-2.7,1.9-5.1,2.9-7.3c1-2.2,2-4.1,2.9-5.7l27.6-47.7h23.6l-61.9,97.1L617.2,519
		c-0.6-1.9-1.1-3.8-1.5-5.7c-0.4-2.3-0.8-4.7-1-7c-1.3,2.5-2.5,5.1-3.8,7.6c-1.1,2.2-1.9,3.7-2.5,4.6l-31.1,51.6l-33.8-97.1l0,0
		L543.6,473.3z M501.9,579.8L486.5,562c-5.5,2.2-10.7,3.7-15.8,4.7c-5,1-9.9,1.7-15,1.7c-21.5,0-38.6-6.1-51.2-18.5s-19-29-19-50.1
		s2-22.2,6.1-32.1c3.9-9.9,9.8-18.6,17.5-26c7.3-7,15.7-12.4,25.1-16.1c9.6-3.7,19.7-5.5,30.6-5.5c21.1,0,38.1,6.2,50.8,18.7
		s19.1,29,19.1,49.8c0,20.8-2.5,24.6-7.6,35.5c-5.1,11-12.4,20-21.9,27.4l23.6,28h-26.4L501.9,579.8z M453.8,522.7h26.4l11.1,13
		c6.9-5.6,12.1-12.5,15.7-20.5c3.8-8.2,5.6-16.8,5.6-25.9c0-14.8-4.6-26.6-13.6-35.5c-9-9-20.9-13.6-35.8-13.6
		c-14.9,0-14.4,1.4-20.9,4.1c-6.6,2.7-12.4,6.6-17.3,11.7c-5.6,5.7-9.9,12.4-13,19.9c-3.1,7.4-4.6,15.2-4.6,23.2
		c0,14.5,4.5,26.4,13.3,35.7c8.9,9.3,20.1,13.9,33.9,13.9c13.8,0,5.7-0.3,8.8-0.6c3.1-0.5,6.2-1.1,9.7-2.2l-19.2-23.1L453.8,522.7z"
		/>
</g>
</svg>
